<svg width="166" height="49" viewBox="0 0 166 49" fill="none" xmlns="http://www.w3.org/2000/svg">
<g clip-path="url(#clip0_389_11)">
<path fill-rule="evenodd" clip-rule="evenodd" d="M0 14.13V14.253L27.95 27.383L56 14.209V14.176L27.95 1L0 14.13ZM10.077 14.192L27.95 5.795L45.827 14.192L27.95 22.588L10.077 14.192ZM27.95 32.483L0 19.55V24.334L27.95 37.298L56 24.289V19.505L27.95 32.483ZM27.95 42.186L0 29.25V34.033L27.95 47L56 33.99V29.206L27.95 42.186Z" fill="white"/>
<mask id="mask0_389_11" style="mask-type:luminance" maskUnits="userSpaceOnUse" x="72" y="0" width="94" height="49">
<path d="M72.0137 0.0299988H165.974V48.32H72.0147L72.0137 0.0299988Z" fill="white"/>
</mask>
<g mask="url(#mask0_389_11)">
<path fill-rule="evenodd" clip-rule="evenodd" d="M159.561 24.152C159.577 22.0868 158.804 20.0932 157.4 18.579C156.739 17.8708 155.943 17.302 155.06 16.906C154.164 16.5041 153.192 16.2991 152.21 16.305C151.2 16.305 150.249 16.505 149.358 16.906C148.474 17.3019 147.678 17.8708 147.018 18.579C145.613 20.0937 144.841 22.0876 144.858 24.153C144.841 26.2181 145.614 28.2115 147.018 29.726C147.678 30.4339 148.474 31.0024 149.358 31.398C150.254 31.8004 151.226 32.0057 152.209 32C153.219 32 154.169 31.8 155.061 31.398C155.944 31.0022 156.739 30.4337 157.4 29.726C158.804 28.2114 159.578 26.2174 159.561 24.152ZM165.976 24.152C165.976 26.084 165.619 27.875 164.906 29.525C164.221 31.1336 163.221 32.5888 161.966 33.805C160.719 35.01 159.256 35.961 157.578 36.659C155.9 37.358 154.11 37.707 152.209 37.707C150.309 37.707 148.526 37.358 146.863 36.659C145.238 35.9859 143.756 35.0099 142.497 33.783C141.244 32.556 140.245 31.0942 139.557 29.481C138.844 27.831 138.487 26.055 138.487 24.152C138.487 22.279 138.851 20.518 139.579 18.868C140.283 17.2518 141.288 15.7841 142.541 14.543C143.796 13.3044 145.279 12.3203 146.908 11.645C148.586 10.9434 150.389 10.5869 152.209 10.597C154.11 10.597 155.899 10.947 157.578 11.645C159.256 12.343 160.718 13.295 161.966 14.499C163.214 15.703 164.194 17.137 164.906 18.801C165.619 20.466 165.976 22.25 165.976 24.152ZM136.259 36.905C135.709 37.1581 135.134 37.3525 134.544 37.485C133.906 37.633 133.244 37.707 132.562 37.707C131.635 37.7103 130.713 37.5827 129.822 37.328C128.976 37.092 128.193 36.6735 127.527 36.102C126.874 35.537 126.354 34.802 125.967 33.895C125.582 32.988 125.389 31.895 125.389 30.618V0.0289993H131.938V29.503C131.938 30.573 132.153 31.309 132.584 31.71C133.014 32.111 133.527 32.312 134.121 32.312C134.863 32.312 135.576 32.089 136.259 31.643V36.905ZM122.493 11.22L110.909 41.854C110.048 44.143 108.919 45.793 107.523 46.804C106.127 47.814 104.463 48.319 102.533 48.319C102.236 48.319 101.91 48.297 101.553 48.253C101.207 48.2104 100.864 48.1432 100.528 48.052L98.3896 42.077C98.8902 42.3131 99.4127 42.4996 99.9496 42.634C100.484 42.768 100.989 42.835 101.464 42.835C102.474 42.835 103.394 42.605 104.226 42.144C105.058 41.684 105.696 40.829 106.142 39.58L107.033 36.994L97.0976 11.221H104.093L110.018 27.809L115.588 11.221L122.493 11.22ZM95.5386 7.342H78.7866V15.636H95.3156V21.254H78.7856V37.038H72.0156V1.412H95.5396L95.5386 7.342Z" fill="white"/>
</g>
</g>
<defs>
<clipPath id="clip0_389_11">
<rect width="166" height="49" fill="white"/>
</clipPath>
</defs>
</svg>
